<?xml version="1.0" encoding="UTF-8" standalone="no"?> <!-- Created with Vectornator for iOS (http://vectornator.io/) --><!DOCTYPE svg PUBLIC "-//W3C//DTD SVG 1.1//EN" "http://www.w3.org/Graphics/SVG/1.1/DTD/svg11.dtd">
<svg height="100%" style="fill-rule:evenodd;clip-rule:evenodd;stroke-linecap:round;stroke-linejoin:round;" xmlns:xlink="http://www.w3.org/1999/xlink" xmlns="http://www.w3.org/2000/svg" xml:space="preserve" width="100%" xmlns:vectornator="http://vectornator.io" version="1.1" viewBox="0 0 270 70">
<metadata>
<vectornator:setting key="DisplayWhiteBackground" value="0"/>
<vectornator:setting key="RulersVisible" value="1"/>
<vectornator:setting key="Units" value="Pixels"/>
<vectornator:setting key="New" value="1"/>
<vectornator:setting key="DynamicGuides" value="0"/>
<vectornator:setting key="GuidesVisible" value="1"/>
<vectornator:setting key="SnapToPoints" value="0"/>
<vectornator:setting key="SnapToGrid" value="0"/>
<vectornator:setting key="SnapToGuides" value="1"/>
<vectornator:setting key="DimensionsVisible" value="1"/>
<vectornator:setting key="SnapToEdges" value="0"/>
</metadata>
<defs/>
<g id="Ebene 1" vectornator:layerName="Ebene 1">
<g opacity="1"/>
<g opacity="1">
<path d="M8.78244+21.867L13.3747+21.867L20.1745+41.8797L26.926+21.867L31.4699+21.867L31.4699+45.5374L28.4245+45.5374L28.4245+31.5672C28.4245+31.0838+28.4353+30.2835+28.4568+29.1663C28.4782+28.0492+28.489+26.8514+28.489+25.5731L21.7375+45.5374L18.5632+45.5374L11.7634+25.5731L11.7634+26.2982C11.7634+26.8783+11.7768+27.7618+11.8037+28.9488C11.8305+30.1358+11.844+31.0086+11.844+31.5672L11.844+45.5374L8.78244+45.5374L8.78244+21.867Z" opacity="1" fill="#000000"/>
<path d="M41.0892+40.9452C41.0892+41.783+41.3953+42.4437+42.0076+42.9271C42.6199+43.4105+43.345+43.6522+44.1829+43.6522C45.2034+43.6522+46.1917+43.4159+47.1478+42.9432C48.7591+42.159+49.5648+40.8753+49.5648+39.0921L49.5648+36.7557C49.2103+36.9813+48.7537+37.1693+48.1951+37.3197C47.6365+37.4701+47.0887+37.5775+46.5516+37.6419L44.7952+37.8675C43.7425+38.0072+42.9529+38.2274+42.4266+38.5282C41.535+39.033+41.0892+39.8387+41.0892+40.9452ZM48.1146+35.0799C48.7806+34.994+49.2264+34.7147+49.452+34.242C49.5809+33.9842+49.6453+33.6136+49.6453+33.1302C49.6453+32.1419+49.2935+31.4249+48.5899+30.9791C47.8863+30.5333+46.8792+30.3104+45.5687+30.3104C44.054+30.3104+42.9798+30.7186+42.346+31.535C41.9915+31.9862+41.7606+32.6576+41.6531+33.5492L38.9461+33.5492C38.9998+31.4222+39.69+29.9425+41.0167+29.11C42.3433+28.2774+43.8821+27.8612+45.6331+27.8612C47.6634+27.8612+49.3123+28.2479+50.5799+29.0213C51.8367+29.7948+52.4651+30.9979+52.4651+32.6307L52.4651+42.5726C52.4651+42.8734+52.5269+43.1151+52.6505+43.2977C52.774+43.4803+53.0345+43.5716+53.4319+43.5716C53.5609+43.5716+53.7059+43.5636+53.867+43.5475C54.0281+43.5313+54.2+43.5072+54.3826+43.4749L54.3826+45.618C53.9315+45.7469+53.5877+45.8275+53.3514+45.8597C53.1151+45.8919+52.7928+45.908+52.3846+45.908C51.3856+45.908+50.6605+45.5536+50.2093+44.8446C49.973+44.4686+49.8065+43.9369+49.7098+43.2494C49.119+44.0228+48.2703+44.6942+47.1639+45.2635C46.0574+45.8329+44.8382+46.1175+43.5062+46.1175C41.9056+46.1175+40.5977+45.6314+39.5826+44.6593C38.5674+43.6871+38.0599+42.4705+38.0599+41.0096C38.0599+39.409+38.5594+38.1683+39.5584+37.2874C40.5574+36.4066+41.868+35.8641+43.4901+35.66L48.1146+35.0799Z" opacity="1" fill="#000000"/>
<path d="M60.1991+28.2801L62.9545+28.2801L62.9545+31.2611C63.1801+30.681+63.7333+29.9747+64.6142+29.1422C65.495+28.3097+66.5102+27.8934+67.6596+27.8934C67.7133+27.8934+67.8046+27.8988+67.9335+27.9095C68.0624+27.9203+68.2826+27.9417+68.5942+27.974L68.5942+31.0355C68.4223+31.0033+68.2638+30.9818+68.1188+30.971C67.9738+30.9603+67.8153+30.9549+67.6435+30.9549C66.1825+30.9549+65.06+31.4249+64.2758+32.3648C63.4916+33.3048+63.0995+34.387+63.0995+35.6117L63.0995+45.5374L60.1991+45.5374L60.1991+28.2801Z" opacity="1" fill="#000000"/>
<path d="M80.6626+27.7806C82.6069+27.7806+84.1887+28.2533+85.408+29.1986C86.6272+30.1439+87.3604+31.7713+87.6074+34.0809L84.7876+34.0809C84.6157+33.0174+84.2236+32.1339+83.6113+31.4303C82.999+30.7266+82.0161+30.3748+80.6626+30.3748C78.815+30.3748+77.4937+31.2772+76.6987+33.0819C76.1831+34.2528+75.9253+35.6976+75.9253+37.4163C75.9253+39.1458+76.2905+40.6014+77.021+41.783C77.7515+42.9647+78.9009+43.5555+80.4693+43.5555C81.6724+43.5555+82.6257+43.1876+83.3294+42.4517C84.033+41.7159+84.5191+40.7088+84.7876+39.4305L87.6074+39.4305C87.2852+41.7186+86.4795+43.3917+85.1904+44.4498C83.9014+45.5079+82.2525+46.037+80.2437+46.037C77.9878+46.037+76.1885+45.2125+74.8457+43.5636C73.5029+41.9146+72.8316+39.8548+72.8316+37.3841C72.8316+34.3548+73.5674+31.9969+75.0391+30.3104C76.5108+28.6239+78.3853+27.7806+80.6626+27.7806Z" opacity="1" fill="#000000"/>
<path d="M96.3082+28.2801L96.3082+39.7367C96.3082+40.6175+96.4479+41.3372+96.7272+41.8958C97.2428+42.9271+98.2042+43.4427+99.6114+43.4427C101.631+43.4427+103.006+42.5404+103.736+40.7357C104.134+39.7689+104.333+38.4422+104.333+36.7557L104.333+28.2801L107.233+28.2801L107.233+45.5374L104.494+45.5374L104.526+42.9915C104.15+43.6468+103.683+44.2+103.124+44.6512C102.018+45.5536+100.675+46.0047+99.0958+46.0047C96.6359+46.0047+94.9601+45.1829+94.0685+43.5394C93.5851+42.6585+93.3434+41.4823+93.3434+40.0106L93.3434+28.2801L96.3082+28.2801Z" opacity="1" fill="#000000"/>
<path d="M116.385+40.1234C116.471+41.0902+116.713+41.8314+117.11+42.347C117.841+43.2816+119.108+43.7489+120.913+43.7489C121.987+43.7489+122.932+43.5152+123.749+43.0479C124.565+42.5807+124.973+41.8582+124.973+40.8807C124.973+40.1395+124.646+39.5755+123.99+39.1888C123.571+38.9525+122.744+38.6786+121.509+38.367L119.205+37.787C117.733+37.4217+116.648+37.0135+115.95+36.5623C114.704+35.7782+114.081+34.6932+114.081+33.3075C114.081+31.6746+114.669+30.3534+115.845+29.3436C117.021+28.3338+118.603+27.8289+120.591+27.8289C123.19+27.8289+125.065+28.5916+126.214+30.117C126.934+31.0838+127.283+32.1258+127.261+33.243L124.522+33.243C124.468+32.5877+124.238+31.9915+123.829+31.4544C123.163+30.6917+122.009+30.3104+120.365+30.3104C119.269+30.3104+118.439+30.5199+117.875+30.9388C117.311+31.3578+117.03+31.911+117.03+32.5985C117.03+33.3504+117.4+33.952+118.141+34.4032C118.571+34.6717+119.205+34.908+120.043+35.1121L121.96+35.5794C124.044+36.0843+125.441+36.5731+126.15+37.0457C127.278+37.787+127.842+38.9525+127.842+40.5423C127.842+42.0785+127.259+43.4051+126.093+44.5223C124.928+45.6395+123.153+46.1981+120.768+46.1981C118.2+46.1981+116.382+45.6153+115.313+44.4498C114.245+43.2843+113.673+41.8421+113.597+40.1234L116.385+40.1234Z" opacity="1" fill="#000000"/>
<path d="M146.516+21.867L149.642+21.867L149.642+33.4041L161.179+21.867L165.61+21.867L155.765+31.4061L165.884+45.5374L161.711+45.5374L153.429+33.662L149.642+37.2874L149.642+45.5374L146.516+45.5374L146.516+21.867Z" opacity="1" fill="#000000"/>
<path d="M171.121+28.2801L173.876+28.2801L173.876+31.2611C174.102+30.681+174.655+29.9747+175.536+29.1422C176.417+28.3097+177.432+27.8934+178.581+27.8934C178.635+27.8934+178.726+27.8988+178.855+27.9095C178.984+27.9203+179.204+27.9417+179.516+27.974L179.516+31.0355C179.344+31.0033+179.185+30.9818+179.04+30.971C178.895+30.9603+178.737+30.9549+178.565+30.9549C177.104+30.9549+175.981+31.4249+175.197+32.3648C174.413+33.3048+174.021+34.387+174.021+35.6117L174.021+45.5374L171.121+45.5374L171.121+28.2801Z" opacity="1" fill="#000000"/>
<path d="M187.153+40.9452C187.153+41.783+187.459+42.4437+188.071+42.9271C188.684+43.4105+189.409+43.6522+190.247+43.6522C191.267+43.6522+192.255+43.4159+193.212+42.9432C194.823+42.159+195.629+40.8753+195.629+39.0921L195.629+36.7557C195.274+36.9813+194.817+37.1693+194.259+37.3197C193.7+37.4701+193.152+37.5775+192.615+37.6419L190.859+37.8675C189.806+38.0072+189.017+38.2274+188.49+38.5282C187.599+39.033+187.153+39.8387+187.153+40.9452ZM194.178+35.0799C194.844+34.994+195.29+34.7147+195.516+34.242C195.645+33.9842+195.709+33.6136+195.709+33.1302C195.709+32.1419+195.357+31.4249+194.654+30.9791C193.95+30.5333+192.943+30.3104+191.632+30.3104C190.118+30.3104+189.044+30.7186+188.41+31.535C188.055+31.9862+187.824+32.6576+187.717+33.5492L185.01+33.5492C185.064+31.4222+185.754+29.9425+187.08+29.11C188.407+28.2774+189.946+27.8612+191.697+27.8612C193.727+27.8612+195.376+28.2479+196.644+29.0213C197.901+29.7948+198.529+30.9979+198.529+32.6307L198.529+42.5726C198.529+42.8734+198.591+43.1151+198.714+43.2977C198.838+43.4803+199.098+43.5716+199.496+43.5716C199.625+43.5716+199.77+43.5636+199.931+43.5475C200.092+43.5313+200.264+43.5072+200.446+43.4749L200.446+45.618C199.995+45.7469+199.651+45.8275+199.415+45.8597C199.179+45.8919+198.857+45.908+198.448+45.908C197.449+45.908+196.724+45.5536+196.273+44.8446C196.037+44.4686+195.87+43.9369+195.774+43.2494C195.183+44.0228+194.334+44.6942+193.228+45.2635C192.121+45.8329+190.902+46.1175+189.57+46.1175C187.969+46.1175+186.661+45.6314+185.646+44.6593C184.631+43.6871+184.124+42.4705+184.124+41.0096C184.124+39.409+184.623+38.1683+185.622+37.2874C186.621+36.4066+187.932+35.8641+189.554+35.66L194.178+35.0799Z" opacity="1" fill="#000000"/>
<path d="M209.083+28.2801L209.083+39.7367C209.083+40.6175+209.222+41.3372+209.502+41.8958C210.017+42.9271+210.979+43.4427+212.386+43.4427C214.405+43.4427+215.78+42.5404+216.511+40.7357C216.908+39.7689+217.107+38.4422+217.107+36.7557L217.107+28.2801L220.008+28.2801L220.008+45.5374L217.268+45.5374L217.301+42.9915C216.925+43.6468+216.457+44.2+215.899+44.6512C214.792+45.5536+213.449+46.0047+211.87+46.0047C209.41+46.0047+207.735+45.1829+206.843+43.5394C206.36+42.6585+206.118+41.4823+206.118+40.0106L206.118+28.2801L209.083+28.2801Z" opacity="1" fill="#000000"/>
<path d="M229.159+40.1234C229.245+41.0902+229.487+41.8314+229.885+42.347C230.615+43.2816+231.883+43.7489+233.687+43.7489C234.762+43.7489+235.707+43.5152+236.523+43.0479C237.34+42.5807+237.748+41.8582+237.748+40.8807C237.748+40.1395+237.42+39.5755+236.765+39.1888C236.346+38.9525+235.519+38.6786+234.284+38.367L231.979+37.787C230.508+37.4217+229.423+37.0135+228.724+36.5623C227.478+35.7782+226.855+34.6932+226.855+33.3075C226.855+31.6746+227.443+30.3534+228.62+29.3436C229.796+28.3338+231.378+27.8289+233.365+27.8289C235.965+27.8289+237.839+28.5916+238.989+30.117C239.708+31.0838+240.057+32.1258+240.036+33.243L237.297+33.243C237.243+32.5877+237.012+31.9915+236.604+31.4544C235.938+30.6917+234.783+30.3104+233.139+30.3104C232.044+30.3104+231.214+30.5199+230.65+30.9388C230.086+31.3578+229.804+31.911+229.804+32.5985C229.804+33.3504+230.175+33.952+230.916+34.4032C231.346+34.6717+231.979+34.908+232.817+35.1121L234.735+35.5794C236.819+36.0843+238.215+36.5731+238.924+37.0457C240.052+37.787+240.616+38.9525+240.616+40.5423C240.616+42.0785+240.033+43.4051+238.868+44.5223C237.702+45.6395+235.927+46.1981+233.542+46.1981C230.975+46.1981+229.157+45.6153+228.088+44.4498C227.019+43.2843+226.447+41.8421+226.372+40.1234L229.159+40.1234Z" opacity="1" fill="#000000"/>
<path d="M254.022+27.8934C255.246+27.8934+256.434+28.1808+257.583+28.7555C258.732+29.3302+259.608+30.0741+260.209+30.9871C260.789+31.8573+261.176+32.8724+261.37+34.0326C261.541+34.8275+261.627+36.0951+261.627+37.8353L248.978+37.8353C249.032+39.5863+249.446+40.9908+250.219+42.0489C250.993+43.107+252.19+43.6361+253.812+43.6361C255.327+43.6361+256.536+43.1366+257.438+42.1375C257.954+41.5575+258.319+40.8861+258.534+40.1234L261.386+40.1234C261.31+40.7572+261.061+41.4635+260.636+42.2423C260.212+43.0211+259.737+43.6576+259.21+44.1517C258.33+45.0111+257.239+45.5912+255.939+45.8919C255.241+46.0638+254.452+46.1497+253.571+46.1497C251.422+46.1497+249.601+45.3683+248.108+43.8053C246.615+42.2423+245.869+40.0536+245.869+37.2391C245.869+34.4676+246.621+32.2171+248.124+30.4876C249.628+28.7581+251.594+27.8934+254.022+27.8934ZM258.646+35.5311C258.528+34.2743+258.254+33.2699+257.825+32.5179C257.03+31.1214+255.703+30.4232+253.845+30.4232C252.513+30.4232+251.395+30.9039+250.493+31.8653C249.591+32.8267+249.113+34.0487+249.059+35.5311L258.646+35.5311Z" opacity="1" fill="#000000"/>
</g>
</g>
</svg>
